<svg width="70" height="70" viewBox="0 0 70 70" fill="none" xmlns="http://www.w3.org/2000/svg">
<path d="M35.0001 0C15.6701 0 0 15.6701 0 35.0001C0 54.3301 15.6701 70.0001 35.0001 70.0001C54.3301 70.0001 70.0001 54.3301 70.0001 35.0001C69.9796 15.6787 54.3216 0.0206544 35.0001 0ZM54.2677 24.2676L29.2675 49.2677C28.2912 50.2437 26.7087 50.2437 25.7326 49.2677L15.7325 39.2676C14.7393 38.3084 14.7118 36.7258 15.6709 35.7326C16.6301 34.7395 18.2128 34.7119 19.2059 35.6711C19.2267 35.6913 19.2472 35.7117 19.2674 35.7326L27.5 43.9652L50.7327 20.7326C51.7258 19.7734 53.3085 19.8009 54.2677 20.794C55.2034 21.7628 55.2034 23.2987 54.2677 24.2676Z" fill="#50E468"/>
</svg>
